<?xml version="1.0" standalone="no"?>
<!DOCTYPE svg PUBLIC "-//W3C//DTD SVG 20010904//EN"
 "http://www.w3.org/TR/2001/REC-SVG-20010904/DTD/svg10.dtd">
<svg version="1.0" xmlns="http://www.w3.org/2000/svg"
 width="304.000000pt" height="304.000000pt" viewBox="0 0 304.000000 304.000000"
 preserveAspectRatio="xMidYMid meet">
<metadata>
Created by potrace 1.14, written by Peter Selinger 2001-2017
</metadata>
<g transform="translate(0.000000,304.000000) scale(0.100000,-0.100000)"
fill="#000000" stroke="none">
<path d="M435 1911 c-40 -18 -73 -48 -93 -86 -9 -17 -11 -10 -12 38 l0 57 -85
0 -85 0 0 -420 0 -421 83 3 82 3 5 153 5 152 29 -36 c86 -108 277 -96 356 24
44 66 55 113 54 232 0 84 -5 116 -22 162 -52 130 -197 194 -317 139z m112
-153 c42 -39 56 -78 57 -153 0 -53 -6 -80 -22 -112 -54 -104 -185 -96 -234 14
-25 58 -21 163 8 215 40 68 137 87 191 36z"/>
<path d="M993 1916 c-64 -21 -110 -54 -141 -99 -48 -72 -57 -104 -57 -217 0
-95 3 -111 28 -162 51 -104 144 -158 271 -158 84 0 153 22 204 66 39 33 82 98
82 124 0 6 -29 10 -74 10 -71 0 -75 -1 -109 -35 -31 -31 -41 -35 -88 -35 -86
0 -133 37 -146 113 l-6 37 218 0 218 0 -6 75 c-9 128 -69 223 -167 268 -56 25
-169 32 -227 13z m168 -133 c29 -17 59 -67 59 -97 0 -14 -18 -16 -131 -16
l-131 0 6 28 c9 36 37 74 67 89 34 18 96 16 130 -4z"/>
<path d="M1670 1912 c-23 -11 -43 -33 -57 -62 l-23 -44 0 57 0 57 -85 0 -85 0
0 -315 0 -315 85 0 85 0 0 196 c0 161 3 202 16 230 21 44 60 64 124 64 l50 0
0 75 0 75 -37 0 c-21 0 -54 -8 -73 -18z"/>
<path d="M1965 1916 c-140 -44 -209 -146 -209 -311 0 -112 23 -175 89 -241 60
-61 122 -84 220 -84 78 0 142 22 194 67 47 39 66 72 80 132 l9 41 -79 0 -79 0
-14 -34 c-28 -67 -114 -94 -174 -56 -47 29 -72 89 -72 175 0 122 47 188 134
188 51 0 89 -23 111 -69 l16 -34 78 0 79 0 -10 42 c-13 58 -43 104 -91 139
-75 55 -193 73 -282 45z"/>
<path d="M2323 1905 c3 -7 54 -150 113 -317 100 -282 106 -304 93 -327 -21
-36 -57 -53 -106 -48 l-43 5 0 -63 0 -62 44 -6 c51 -7 157 8 195 28 34 17 74
61 95 103 10 18 55 145 102 282 80 236 84 253 84 335 l0 86 -62 -3 -61 -3 -66
-243 c-36 -133 -68 -239 -71 -235 -4 5 -36 115 -70 246 l-63 237 -95 0 c-78 0
-93 -2 -89 -15z"/>
</g>
</svg>
